<svg width="100" height="100" viewBox="0 0 100 100" fill="none" xmlns="http://www.w3.org/2000/svg">
<path d="M0 4.6875C0 2.08984 1.87353 0 4.2023 0H12.1692C16.0213 0 19.4356 2.5 21.029 6.25H92.9934C97.5985 6.25 100.96 11.1328 99.7522 16.0938L92.5732 45.8398C91.0849 51.9727 86.0947 56.25 80.4041 56.25H29.8889L30.8344 61.8164C31.2196 64.0234 32.9531 65.625 34.9667 65.625H85.4468C87.7756 65.625 89.6491 67.7148 89.6491 70.3125C89.6491 72.9102 87.7756 75 85.4468 75H34.9667C28.9083 75 23.708 70.1953 22.5874 63.5742L13.5524 10.6445C13.4299 9.90234 12.852 9.375 12.1692 9.375H4.2023C1.87353 9.375 0 7.28516 0 4.6875ZM22.4123 90.625C22.4123 89.3939 22.6297 88.1748 23.052 87.0373C23.4744 85.8999 24.0935 84.8664 24.8739 83.9959C25.6544 83.1253 26.5809 82.4348 27.6006 81.9636C28.6203 81.4925 29.7132 81.25 30.8169 81.25C31.9206 81.25 33.0135 81.4925 34.0332 81.9636C35.0529 82.4348 35.9794 83.1253 36.7598 83.9959C37.5403 84.8664 38.1594 85.8999 38.5817 87.0373C39.0041 88.1748 39.2215 89.3939 39.2215 90.625C39.2215 91.8561 39.0041 93.0752 38.5817 94.2127C38.1594 95.3501 37.5403 96.3836 36.7598 97.2541C35.9794 98.1247 35.0529 98.8152 34.0332 99.2864C33.0135 99.7575 31.9206 100 30.8169 100C29.7132 100 28.6203 99.7575 27.6006 99.2864C26.5809 98.8152 25.6544 98.1247 24.8739 97.2541C24.0935 96.3836 23.4744 95.3501 23.052 94.2127C22.6297 93.0752 22.4123 91.8561 22.4123 90.625ZM81.2445 81.25C83.4736 81.25 85.6113 82.2377 87.1875 83.9959C88.7636 85.754 89.6491 88.1386 89.6491 90.625C89.6491 93.1114 88.7636 95.496 87.1875 97.2541C85.6113 99.0123 83.4736 100 81.2445 100C79.0155 100 76.8777 99.0123 75.3016 97.2541C73.7254 95.496 72.8399 93.1114 72.8399 90.625C72.8399 88.1386 73.7254 85.754 75.3016 83.9959C76.8777 82.2377 79.0155 81.25 81.2445 81.25Z" fill="url(#paint0_linear_102_158)"/>
<defs>
<linearGradient id="paint0_linear_102_158" x1="50" y1="0" x2="50" y2="100" gradientUnits="userSpaceOnUse">
<stop stop-color="#F50057"/>
<stop offset="1" stop-color="#CE2626"/>
</linearGradient>
</defs>
</svg>
