<svg width="100" height="100" viewBox="0 0 100 100" fill="none" xmlns="http://www.w3.org/2000/svg">
<path d="M50 50C57.5776 50 64.8449 47.3661 70.2031 42.6777C75.5612 37.9893 78.5714 31.6304 78.5714 25C78.5714 18.3696 75.5612 12.0107 70.2031 7.32233C64.8449 2.63392 57.5776 0 50 0C42.4224 0 35.1551 2.63392 29.7969 7.32233C24.4388 12.0107 21.4286 18.3696 21.4286 25C21.4286 31.6304 24.4388 37.9893 29.7969 42.6777C35.1551 47.3661 42.4224 50 50 50ZM39.7991 59.375C17.8125 59.375 0 74.9609 0 94.1992C0 97.4023 2.96875 100 6.62946 100H93.3705C97.0312 100 100 97.4023 100 94.1992C100 74.9609 82.1875 59.375 60.2009 59.375H39.7991Z" fill="url(#paint0_linear_103_160)"/>
<defs>
<linearGradient id="paint0_linear_103_160" x1="50" y1="0" x2="50" y2="100" gradientUnits="userSpaceOnUse">
<stop stop-color="#F50057"/>
<stop offset="1" stop-color="#CE2626"/>
</linearGradient>
</defs>
</svg>
