<svg width="100" height="100" viewBox="0 0 100 100" fill="none" xmlns="http://www.w3.org/2000/svg">
<path d="M9.29687 58.9813L44.5898 97.5106C46.0547 99.1093 47.9883 100 50 100C52.0117 100 53.9453 99.1093 55.4102 97.5106L90.7031 58.9813C96.6406 52.5179 100 43.4508 100 33.9727V32.648C100 16.6836 90.1367 3.07163 76.6797 0.445154C67.7734 -1.2906 58.7109 2.1124 52.3438 9.55788L50 12.2986L47.6563 9.55788C41.2891 2.1124 32.2266 -1.2906 23.3203 0.445154C9.86328 3.07163 0 16.6836 0 32.648V33.9727C0 43.4508 3.35937 52.5179 9.29687 58.9813Z" fill="url(#paint0_linear_104_3)"/>
<defs>
<linearGradient id="paint0_linear_104_3" x1="50" y1="0" x2="50" y2="100" gradientUnits="userSpaceOnUse">
<stop stop-color="#F50057"/>
<stop offset="1" stop-color="#CE2626"/>
</linearGradient>
</defs>
</svg>
