<svg width="100" height="100" viewBox="0 0 100 100" fill="none" xmlns="http://www.w3.org/2000/svg">
<path d="M99.9738 49.9023C99.9738 53.418 97.3694 56.1719 94.4178 56.1719H88.8617L88.9833 87.4609C88.9833 87.9883 88.9485 88.5156 88.8965 89.043V92.1875C88.8965 96.5039 85.7886 100 81.9514 100H79.1734C78.9824 100 78.7914 100 78.6004 99.9805C78.3574 100 78.1143 100 77.8712 100H72.2284H68.0613C64.2242 100 61.1163 96.5039 61.1163 92.1875V87.5V75C61.1163 71.543 58.6335 68.75 55.5603 68.75H44.4482C41.375 68.75 38.8922 71.543 38.8922 75V87.5V92.1875C38.8922 96.5039 35.7843 100 31.9472 100H27.7801H22.2415C21.981 100 21.7206 99.9805 21.4602 99.9609C21.2518 99.9805 21.0435 100 20.8351 100H18.0571C14.22 100 11.1121 96.5039 11.1121 92.1875V70.3125C11.1121 70.1367 11.1121 69.9414 11.1294 69.7656V56.1719H5.55603C2.43076 56.1719 0 53.4375 0 49.9023C0 48.1445 0.520878 46.582 1.73626 45.2148L46.2539 1.5625C47.4693 0.195313 48.8583 0 50.0737 0C51.2891 0 52.6781 0.390625 53.7198 1.36719L98.0639 45.2148C99.4529 46.582 100.147 48.1445 99.9738 49.9023Z" fill="url(#paint0_linear_102_154)"/>
<defs>
<linearGradient id="paint0_linear_102_154" x1="50" y1="0" x2="50" y2="100" gradientUnits="userSpaceOnUse">
<stop stop-color="#F50057"/>
<stop offset="1" stop-color="#CE2626"/>
</linearGradient>
</defs>
</svg>
