<svg width="100" height="100" viewBox="0 0 100 100" fill="none" xmlns="http://www.w3.org/2000/svg">
<path d="M32.2056 4.80888C30.7018 1.17623 26.7371 -0.757282 22.9482 0.277829L5.76146 4.96512C2.36318 5.90258 0 8.98838 0 12.5039C0 60.822 39.178 100 87.4961 100C91.0116 100 94.0974 97.6368 95.0349 94.2385L99.7222 77.0518C100.757 73.2629 98.8238 69.2982 95.1911 67.7944L76.4419 59.9822C73.2585 58.6542 69.5672 59.5721 67.3994 62.2478L59.5091 71.8762C45.7597 65.3726 34.6274 54.2403 28.1238 40.4909L37.7522 32.6202C40.4279 30.4328 41.3458 26.761 40.0178 23.5776L32.2056 4.82841V4.80888Z" fill="url(#paint0_linear_102_42)"/>
<defs>
<linearGradient id="paint0_linear_102_42" x1="50" y1="0" x2="50" y2="100" gradientUnits="userSpaceOnUse">
<stop stop-color="#CE266D"/>
<stop offset="1" stop-color="#CE2626"/>
</linearGradient>
</defs>
</svg>
