<svg width="100" height="100" viewBox="0 0 100 100" fill="none" xmlns="http://www.w3.org/2000/svg">
<path d="M81.254 40.619C81.254 49.5826 78.3437 57.8626 73.4411 64.5804L98.1689 89.3228C100.61 91.7639 100.61 95.7282 98.1689 98.1692C95.7273 100.61 91.7623 100.61 89.3208 98.1692L64.593 73.4267C57.8739 78.3479 49.5923 81.2381 40.627 81.2381C18.1845 81.2381 0 63.0572 0 40.619C0 18.1809 18.1845 0 40.627 0C63.0695 0 81.254 18.1809 81.254 40.619ZM40.627 68.7399C44.3206 68.7399 47.978 68.0126 51.3905 66.5994C54.8029 65.1862 57.9036 63.1148 60.5153 60.5035C63.1271 57.8922 65.1989 54.7922 66.6124 51.3804C68.0258 47.9687 68.7534 44.3119 68.7534 40.619C68.7534 36.9262 68.0258 33.2694 66.6124 29.8577C65.1989 26.4459 63.1271 23.3458 60.5153 20.7346C57.9036 18.1233 54.8029 16.052 51.3905 14.6387C47.978 13.2255 44.3206 12.4982 40.627 12.4982C36.9334 12.4982 33.2759 13.2255 29.8635 14.6387C26.451 16.052 23.3504 18.1233 20.7386 20.7346C18.1269 23.3458 16.0551 26.4459 14.6416 29.8577C13.2281 33.2694 12.5006 36.9262 12.5006 40.619C12.5006 44.3119 13.2281 47.9687 14.6416 51.3804C16.0551 54.7922 18.1269 57.8922 20.7386 60.5035C23.3504 63.1148 26.451 65.1862 29.8635 66.5994C33.2759 68.0126 36.9334 68.7399 40.627 68.7399Z" fill="url(#paint0_linear_102_156)"/>
<defs>
<linearGradient id="paint0_linear_102_156" x1="50" y1="0" x2="50" y2="100" gradientUnits="userSpaceOnUse">
<stop stop-color="#F50057"/>
<stop offset="1" stop-color="#CE2626"/>
</linearGradient>
</defs>
</svg>
